<svg width="25" height="20" viewBox="0 0 25 20" fill="none" xmlns="http://www.w3.org/2000/svg">
<path d="M17.5 19V17C17.5 15.9391 17.0786 14.9217 16.3284 14.1716C15.5783 13.4214 14.5609 13 13.5 13H5.5C4.43913 13 3.42172 13.4214 2.67157 14.1716C1.92143 14.9217 1.5 15.9391 1.5 17V19M23.5 19V17C23.4993 16.1137 23.2044 15.2528 22.6614 14.5523C22.1184 13.8519 21.3581 13.3516 20.5 13.13M16.5 1.13C17.3604 1.3503 18.123 1.8507 18.6676 2.55231C19.2122 3.25392 19.5078 4.11683 19.5078 5.005C19.5078 5.89317 19.2122 6.75608 18.6676 7.45769C18.123 8.1593 17.3604 8.6597 16.5 8.88M13.5 5C13.5 7.20914 11.7091 9 9.5 9C7.29086 9 5.5 7.20914 5.5 5C5.5 2.79086 7.29086 1 9.5 1C11.7091 1 13.5 2.79086 13.5 5Z" stroke="#344054" stroke-width="2" stroke-linecap="round" stroke-linejoin="round"/>
</svg>
