<svg width="23" height="16" viewBox="0 0 23 16" fill="none" xmlns="http://www.w3.org/2000/svg">
<path d="M13.5 5H11C10.1716 5 9.5 5.67157 9.5 6.5C9.5 7.32843 10.1716 8 11 8H12C12.8284 8 13.5 8.67157 13.5 9.5C13.5 10.3284 12.8284 11 12 11H9.5M11.5 4V5M11.5 11V12M17.5 8H17.51M5.5 8H5.51M1.5 4.2L1.5 11.8C1.5 12.9201 1.5 13.4802 1.71799 13.908C1.90973 14.2843 2.21569 14.5903 2.59202 14.782C3.01984 15 3.57989 15 4.7 15L18.3 15C19.4201 15 19.9802 15 20.408 14.782C20.7843 14.5903 21.0903 14.2843 21.282 13.908C21.5 13.4802 21.5 12.9201 21.5 11.8V4.2C21.5 3.0799 21.5 2.51984 21.282 2.09202C21.0903 1.7157 20.7843 1.40974 20.408 1.21799C19.9802 1 19.4201 1 18.3 1L4.7 1C3.5799 1 3.01984 1 2.59202 1.21799C2.2157 1.40973 1.90973 1.71569 1.71799 2.09202C1.5 2.51984 1.5 3.07989 1.5 4.2ZM18 8C18 8.27614 17.7761 8.5 17.5 8.5C17.2239 8.5 17 8.27614 17 8C17 7.72386 17.2239 7.5 17.5 7.5C17.7761 7.5 18 7.72386 18 8ZM6 8C6 8.27614 5.77614 8.5 5.5 8.5C5.22386 8.5 5 8.27614 5 8C5 7.72386 5.22386 7.5 5.5 7.5C5.77614 7.5 6 7.72386 6 8Z" stroke="#344054" stroke-width="2" stroke-linecap="round" stroke-linejoin="round"/>
</svg>
