<svg aria-hidden="true" style="position: absolute; width: 0; height: 0; overflow: hidden;" fill="none" xmlns="http://www.w3.org/2000/svg" xmlns:xlink="http://www.w3.org/1999/xlink">
<symbol id="icon-human_resource" viewBox="0 0 25 20">
<path d="M17.5 19V17C17.5 15.9391 17.0786 14.9217 16.3284 14.1716C15.5783 13.4214 14.5609 13 13.5 13H5.5C4.43913 13 3.42172 13.4214 2.67157 14.1716C1.92143 14.9217 1.5 15.9391 1.5 17V19M23.5 19V17C23.4993 16.1137 23.2044 15.2528 22.6614 14.5523C22.1184 13.8519 21.3581 13.3516 20.5 13.13M16.5 1.13C17.3604 1.3503 18.123 1.8507 18.6676 2.55231C19.2122 3.25392 19.5078 4.11683 19.5078 5.005C19.5078 5.89317 19.2122 6.75608 18.6676 7.45769C18.123 8.1593 17.3604 8.6597 16.5 8.88M13.5 5C13.5 7.20914 11.7091 9 9.5 9C7.29086 9 5.5 7.20914 5.5 5C5.5 2.79086 7.29086 1 9.5 1C11.7091 1 13.5 2.79086 13.5 5Z"  stroke-width="2" stroke-linecap="round" stroke-linejoin="round"/>
</symbol>

<symbol id="icon-loans" viewBox="0 0 23 16">
<path d="M13.5 5H11C10.1716 5 9.5 5.67157 9.5 6.5C9.5 7.32843 10.1716 8 11 8H12C12.8284 8 13.5 8.67157 13.5 9.5C13.5 10.3284 12.8284 11 12 11H9.5M11.5 4V5M11.5 11V12M17.5 8H17.51M5.5 8H5.51M1.5 4.2L1.5 11.8C1.5 12.9201 1.5 13.4802 1.71799 13.908C1.90973 14.2843 2.21569 14.5903 2.59202 14.782C3.01984 15 3.57989 15 4.7 15L18.3 15C19.4201 15 19.9802 15 20.408 14.782C20.7843 14.5903 21.0903 14.2843 21.282 13.908C21.5 13.4802 21.5 12.9201 21.5 11.8V4.2C21.5 3.0799 21.5 2.51984 21.282 2.09202C21.0903 1.7157 20.7843 1.40974 20.408 1.21799C19.9802 1 19.4201 1 18.3 1L4.7 1C3.5799 1 3.01984 1 2.59202 1.21799C2.2157 1.40973 1.90973 1.71569 1.71799 2.09202C1.5 2.51984 1.5 3.07989 1.5 4.2ZM18 8C18 8.27614 17.7761 8.5 17.5 8.5C17.2239 8.5 17 8.27614 17 8C17 7.72386 17.2239 7.5 17.5 7.5C17.7761 7.5 18 7.72386 18 8ZM6 8C6 8.27614 5.77614 8.5 5.5 8.5C5.22386 8.5 5 8.27614 5 8C5 7.72386 5.22386 7.5 5.5 7.5C5.77614 7.5 6 7.72386 6 8Z" stroke-width="2" stroke-linecap="round" stroke-linejoin="round"/>
</symbol>

<symbol id="icon-mobile_bank" viewBox="0 0 17 22">
<path d="M8.5 16.5H8.51M4.7 21H12.3C13.4201 21 13.9802 21 14.408 20.782C14.7843 20.5903 15.0903 20.2843 15.282 19.908C15.5 19.4802 15.5 18.9201 15.5 17.8V4.2C15.5 3.07989 15.5 2.51984 15.282 2.09202C15.0903 1.71569 14.7843 1.40973 14.408 1.21799C13.9802 1 13.4201 1 12.3 1H4.7C3.5799 1 3.01984 1 2.59202 1.21799C2.21569 1.40973 1.90973 1.71569 1.71799 2.09202C1.5 2.51984 1.5 3.0799 1.5 4.2V17.8C1.5 18.9201 1.5 19.4802 1.71799 19.908C1.90973 20.2843 2.21569 20.5903 2.59202 20.782C3.01984 21 3.57989 21 4.7 21ZM9 16.5C9 16.7761 8.77614 17 8.5 17C8.22386 17 8 16.7761 8 16.5C8 16.2239 8.22386 16 8.5 16C8.77614 16 9 16.2239 9 16.5Z"  stroke-width="2" stroke-linecap="round" stroke-linejoin="round"/>
</symbol>

<symbol id="icon-assets" viewBox="0 0 23 18">
<path d="M1.5 11.5L11.5 16.5L21.5 11.5M11.5 1.5L1.5 6.5L11.5 11.5L21.5 6.5L11.5 1.5Z" stroke-width="2" stroke-linecap="round" stroke-linejoin="round"/>
</symbol>
</svg>
