<svg aria-hidden="true" style="position: absolute; width: 0; height: 0; overflow: hidden;" fill="none" xmlns="http://www.w3.org/2000/svg" xmlns:xlink="http://www.w3.org/1999/xlink">
<symbol id="icon-human_resource" viewBox="0 0 25 20">
<path d="M17.5 19V17C17.5 15.9391 17.0786 14.9217 16.3284 14.1716C15.5783 13.4214 14.5609 13 13.5 13H5.5C4.43913 13 3.42172 13.4214 2.67157 14.1716C1.92143 14.9217 1.5 15.9391 1.5 17V19M23.5 19V17C23.4993 16.1137 23.2044 15.2528 22.6614 14.5523C22.1184 13.8519 21.3581 13.3516 20.5 13.13M16.5 1.13C17.3604 1.3503 18.123 1.8507 18.6676 2.55231C19.2122 3.25392 19.5078 4.11683 19.5078 5.005C19.5078 5.89317 19.2122 6.75608 18.6676 7.45769C18.123 8.1593 17.3604 8.6597 16.5 8.88M13.5 5C13.5 7.20914 11.7091 9 9.5 9C7.29086 9 5.5 7.20914 5.5 5C5.5 2.79086 7.29086 1 9.5 1C11.7091 1 13.5 2.79086 13.5 5Z"  stroke-width="2" stroke-linecap="round" stroke-linejoin="round"/>
</symbol>

<symbol id="icon-loans" viewBox="0 0 23 16">
<path d="M13.5 5H11C10.1716 5 9.5 5.67157 9.5 6.5C9.5 7.32843 10.1716 8 11 8H12C12.8284 8 13.5 8.67157 13.5 9.5C13.5 10.3284 12.8284 11 12 11H9.5M11.5 4V5M11.5 11V12M17.5 8H17.51M5.5 8H5.51M1.5 4.2L1.5 11.8C1.5 12.9201 1.5 13.4802 1.71799 13.908C1.90973 14.2843 2.21569 14.5903 2.59202 14.782C3.01984 15 3.57989 15 4.7 15L18.3 15C19.4201 15 19.9802 15 20.408 14.782C20.7843 14.5903 21.0903 14.2843 21.282 13.908C21.5 13.4802 21.5 12.9201 21.5 11.8V4.2C21.5 3.0799 21.5 2.51984 21.282 2.09202C21.0903 1.7157 20.7843 1.40974 20.408 1.21799C19.9802 1 19.4201 1 18.3 1L4.7 1C3.5799 1 3.01984 1 2.59202 1.21799C2.2157 1.40973 1.90973 1.71569 1.71799 2.09202C1.5 2.51984 1.5 3.07989 1.5 4.2ZM18 8C18 8.27614 17.7761 8.5 17.5 8.5C17.2239 8.5 17 8.27614 17 8C17 7.72386 17.2239 7.5 17.5 7.5C17.7761 7.5 18 7.72386 18 8ZM6 8C6 8.27614 5.77614 8.5 5.5 8.5C5.22386 8.5 5 8.27614 5 8C5 7.72386 5.22386 7.5 5.5 7.5C5.77614 7.5 6 7.72386 6 8Z" stroke-width="2" stroke-linecap="round" stroke-linejoin="round"/>
</symbol>

<symbol id="icon-mobile_bank" viewBox="0 0 17 22">
<path d="M8.5 16.5H8.51M4.7 21H12.3C13.4201 21 13.9802 21 14.408 20.782C14.7843 20.5903 15.0903 20.2843 15.282 19.908C15.5 19.4802 15.5 18.9201 15.5 17.8V4.2C15.5 3.07989 15.5 2.51984 15.282 2.09202C15.0903 1.71569 14.7843 1.40973 14.408 1.21799C13.9802 1 13.4201 1 12.3 1H4.7C3.5799 1 3.01984 1 2.59202 1.21799C2.21569 1.40973 1.90973 1.71569 1.71799 2.09202C1.5 2.51984 1.5 3.0799 1.5 4.2V17.8C1.5 18.9201 1.5 19.4802 1.71799 19.908C1.90973 20.2843 2.21569 20.5903 2.59202 20.782C3.01984 21 3.57989 21 4.7 21ZM9 16.5C9 16.7761 8.77614 17 8.5 17C8.22386 17 8 16.7761 8 16.5C8 16.2239 8.22386 16 8.5 16C8.77614 16 9 16.2239 9 16.5Z"  stroke-width="2" stroke-linecap="round" stroke-linejoin="round"/>
</symbol>

<symbol id="icon-assets" viewBox="0 0 23 18">
<path d="M1.5 11.5L11.5 16.5L21.5 11.5M11.5 1.5L1.5 6.5L11.5 11.5L21.5 6.5L11.5 1.5Z" stroke-width="2" stroke-linecap="round" stroke-linejoin="round"/>
</symbol>

<symbol id="icon-dashboard" viewBox="0 0 20 20">
<path d="M8 11H1C0.734784 11 0.48043 11.1054 0.292893 11.2929C0.105357 11.4804 0 11.7348 0 12V19C0 19.2652 0.105357 19.5196 0.292893 19.7071C0.48043 19.8946 0.734784 20 1 20H8C8.26522 20 8.51957 19.8946 8.70711 19.7071C8.89464 19.5196 9 19.2652 9 19V12C9 11.7348 8.89464 11.4804 8.70711 11.2929C8.51957 11.1054 8.26522 11 8 11ZM7 18H2V13H7V18ZM19 0H12C11.7348 0 11.4804 0.105357 11.2929 0.292893C11.1054 0.48043 11 0.734784 11 1V8C11 8.26522 11.1054 8.51957 11.2929 8.70711C11.4804 8.89464 11.7348 9 12 9H19C19.2652 9 19.5196 8.89464 19.7071 8.70711C19.8946 8.51957 20 8.26522 20 8V1C20 0.734784 19.8946 0.48043 19.7071 0.292893C19.5196 0.105357 19.2652 0 19 0ZM18 7H13V2H18V7ZM19 11H12C11.7348 11 11.4804 11.1054 11.2929 11.2929C11.1054 11.4804 11 11.7348 11 12V19C11 19.2652 11.1054 19.5196 11.2929 19.7071C11.4804 19.8946 11.7348 20 12 20H19C19.2652 20 19.5196 19.8946 19.7071 19.7071C19.8946 19.5196 20 19.2652 20 19V12C20 11.7348 19.8946 11.4804 19.7071 11.2929C19.5196 11.1054 19.2652 11 19 11ZM18 18H13V13H18V18ZM8 0H1C0.734784 0 0.48043 0.105357 0.292893 0.292893C0.105357 0.48043 0 0.734784 0 1V8C0 8.26522 0.105357 8.51957 0.292893 8.70711C0.48043 8.89464 0.734784 9 1 9H8C8.26522 9 8.51957 8.89464 8.70711 8.70711C8.89464 8.51957 9 8.26522 9 8V1C9 0.734784 8.89464 0.48043 8.70711 0.292893C8.51957 0.105357 8.26522 0 8 0ZM7 7H2V2H7V7Z" fill="#334054"/>
</symbol>

<symbol id="icon-branch" viewBox="0 0 24 24">
<path d="M6 3V15M6 15C4.34315 15 3 16.3431 3 18C3 19.6569 4.34315 21 6 21C7.65685 21 9 19.6569 9 18M6 15C7.65685 15 9 16.3431 9 18M18 9C19.6569 9 21 7.65685 21 6C21 4.34315 19.6569 3 18 3C16.3431 3 15 4.34315 15 6C15 7.65685 16.3431 9 18 9ZM18 9C18 11.3869 17.0518 13.6761 15.364 15.364C13.6761 17.0518 11.3869 18 9 18" stroke="#334054" stroke-width="2" stroke-linecap="round" stroke-linejoin="round"/>
</symbol>

<symbol id="icon-users" viewBox="0 0 24 24">
<path d="M17 21V19C17 17.9391 16.5786 16.9217 15.8284 16.1716C15.0783 15.4214 14.0609 15 13 15H5C3.93913 15 2.92172 15.4214 2.17157 16.1716C1.42143 16.9217 1 17.9391 1 19V21M23 21V19C22.9993 18.1137 22.7044 17.2528 22.1614 16.5523C21.6184 15.8519 20.8581 15.3516 20 15.13M16 3.13C16.8604 3.3503 17.623 3.8507 18.1676 4.55231C18.7122 5.25392 19.0078 6.11683 19.0078 7.005C19.0078 7.89317 18.7122 8.75608 18.1676 9.45769C17.623 10.1593 16.8604 10.6597 16 10.88M13 7C13 9.20914 11.2091 11 9 11C6.79086 11 5 9.20914 5 7C5 4.79086 6.79086 3 9 3C11.2091 3 13 4.79086 13 7Z" stroke="#334054" stroke-width="2" stroke-linecap="round" stroke-linejoin="round"/>
</symbol>

<symbol id="icon-user" viewBox="0 0 24 24">
<path d="M1.5 11.5L11.5 16.5L21.5 11.5M11.5 1.5L1.5 6.5L11.5 11.5L21.5 6.5L11.5 1.5Z" stroke-width="2" stroke-linecap="round" stroke-linejoin="round"/>
</symbol>

<symbol id="icon-election" viewBox="0 0 24 24">
<path d="M12 10V14M7.44712 3.42103C8.73941 2.52503 10.3084 2 12 2C16.4183 2 20 5.58172 20 10V11.2367M4.41632 7.44607C4.14633 8.24809 4 9.10696 4 10V14C4 17.6349 6.42416 20.7035 9.74396 21.6775M19.6588 16.3187C18.9294 18.7314 17.0911 20.6626 14.7367 21.5196M14.325 6.14635C13.6464 5.7361 12.8508 5.5 12 5.5C9.51472 5.5 7.5 7.51472 7.5 10V12.95M16.5 11.04V14C16.5 16.4853 14.4853 18.5 12 18.5C11.1514 18.5 10.3576 18.2651 9.68014 17.8567" stroke="#344054" stroke-width="2" stroke-linecap="round" stroke-linejoin="round"/>
</symbol>

<symbol id="icon-approval" viewBox="0 0 24 24">
<path d="M13 7L11.8845 4.76892C11.5634 4.1268 11.4029 3.80573 11.1634 3.57116C10.9516 3.36373 10.6963 3.20597 10.4161 3.10931C10.0992 3 9.74021 3 9.02229 3H5.2C4.0799 3 3.51984 3 3.09202 3.21799C2.71569 3.40973 2.40973 3.71569 2.21799 4.09202C2 4.51984 2 5.0799 2 6.2V7M2 7H17.2C18.8802 7 19.7202 7 20.362 7.32698C20.9265 7.6146 21.3854 8.07354 21.673 8.63803C22 9.27976 22 10.1198 22 11.8V16.2C22 17.8802 22 18.7202 21.673 19.362C21.3854 19.9265 20.9265 20.3854 20.362 20.673C19.7202 21 18.8802 21 17.2 21H6.8C5.11984 21 4.27976 21 3.63803 20.673C3.07354 20.3854 2.6146 19.9265 2.32698 19.362C2 18.7202 2 17.8802 2 16.2V7ZM9 14L11 16L15.5 11.5" stroke="#344054" stroke-width="2" stroke-linecap="round" stroke-linejoin="round"/>
</symbol>

<symbol id="icon-transaction" viewBox="0 0 24 24">
<path d="M14 9H11.5C10.6716 9 10 9.67157 10 10.5C10 11.3284 10.6716 12 11.5 12H12.5C13.3284 12 14 12.6716 14 13.5C14 14.3284 13.3284 15 12.5 15H10M12 8V9M12 15V16M18 12H18.01M6 12H6.01M2 8.2L2 15.8C2 16.9201 2 17.4802 2.21799 17.908C2.40973 18.2843 2.71569 18.5903 3.09202 18.782C3.51984 19 4.07989 19 5.2 19L18.8 19C19.9201 19 20.4802 19 20.908 18.782C21.2843 18.5903 21.5903 18.2843 21.782 17.908C22 17.4802 22 16.9201 22 15.8V8.2C22 7.0799 22 6.51984 21.782 6.09202C21.5903 5.7157 21.2843 5.40974 20.908 5.21799C20.4802 5 19.9201 5 18.8 5L5.2 5C4.0799 5 3.51984 5 3.09202 5.21799C2.7157 5.40973 2.40973 5.71569 2.21799 6.09202C2 6.51984 2 7.07989 2 8.2ZM18.5 12C18.5 12.2761 18.2761 12.5 18 12.5C17.7239 12.5 17.5 12.2761 17.5 12C17.5 11.7239 17.7239 11.5 18 11.5C18.2761 11.5 18.5 11.7239 18.5 12ZM6.5 12C6.5 12.2761 6.27614 12.5 6 12.5C5.72386 12.5 5.5 12.2761 5.5 12C5.5 11.7239 5.72386 11.5 6 11.5C6.27614 11.5 6.5 11.7239 6.5 12Z" stroke="#344054" stroke-width="2" stroke-linecap="round" stroke-linejoin="round"/>
</symbol>

<symbol id="icon-insights" viewBox="0 0 24 24">
<path d="M22 12H18L15 21L9 3L6 12H2" stroke="#344054" stroke-width="2" stroke-linecap="round" stroke-linejoin="round"/>
</symbol>

<symbol id="icon-dividend" viewBox="0 0 24 24">
<path d="M13.5295 8.35186C12.9571 8.75995 12.2566 9 11.5 9C9.567 9 8 7.433 8 5.5C8 3.567 9.567 2 11.5 2C12.753 2 13.8522 2.65842 14.4705 3.64814M6 20.0872H8.61029C8.95063 20.0872 9.28888 20.1277 9.61881 20.2086L12.3769 20.8789C12.9753 21.0247 13.5988 21.0388 14.2035 20.9214L17.253 20.3281C18.0585 20.1712 18.7996 19.7854 19.3803 19.2205L21.5379 17.1217C22.154 16.5234 22.154 15.5524 21.5379 14.9531C20.9832 14.4134 20.1047 14.3527 19.4771 14.8103L16.9626 16.6449C16.6025 16.9081 16.1643 17.0498 15.7137 17.0498H13.2855L14.8311 17.0498C15.7022 17.0498 16.4079 16.3633 16.4079 15.5159V15.2091C16.4079 14.5055 15.9156 13.892 15.2141 13.7219L12.8286 13.1417C12.4404 13.0476 12.0428 13 11.6431 13C10.6783 13 8.93189 13.7988 8.93189 13.7988L6 15.0249M20 6.5C20 8.433 18.433 10 16.5 10C14.567 10 13 8.433 13 6.5C13 4.567 14.567 3 16.5 3C18.433 3 20 4.567 20 6.5ZM2 14.6L2 20.4C2 20.9601 2 21.2401 2.10899 21.454C2.20487 21.6422 2.35785 21.7951 2.54601 21.891C2.75992 22 3.03995 22 3.6 22H4.4C4.96005 22 5.24008 22 5.45399 21.891C5.64215 21.7951 5.79513 21.6422 5.89101 21.454C6 21.2401 6 20.9601 6 20.4V14.6C6 14.0399 6 13.7599 5.89101 13.546C5.79513 13.3578 5.64215 13.2049 5.45399 13.109C5.24008 13 4.96005 13 4.4 13L3.6 13C3.03995 13 2.75992 13 2.54601 13.109C2.35785 13.2049 2.20487 13.3578 2.10899 13.546C2 13.7599 2 14.0399 2 14.6Z" stroke="#344054" stroke-width="2" stroke-linecap="round" stroke-linejoin="round"/>
</symbol>

<symbol id="icon-approval" viewBox="0 0 24 24">
<path d="M13 7L11.8845 4.76892C11.5634 4.1268 11.4029 3.80573 11.1634 3.57116C10.9516 3.36373 10.6963 3.20597 10.4161 3.10931C10.0992 3 9.74021 3 9.02229 3H5.2C4.0799 3 3.51984 3 3.09202 3.21799C2.71569 3.40973 2.40973 3.71569 2.21799 4.09202C2 4.51984 2 5.0799 2 6.2V7M2 7H17.2C18.8802 7 19.7202 7 20.362 7.32698C20.9265 7.6146 21.3854 8.07354 21.673 8.63803C22 9.27976 22 10.1198 22 11.8V16.2C22 17.8802 22 18.7202 21.673 19.362C21.3854 19.9265 20.9265 20.3854 20.362 20.673C19.7202 21 18.8802 21 17.2 21H6.8C5.11984 21 4.27976 21 3.63803 20.673C3.07354 20.3854 2.6146 19.9265 2.32698 19.362C2 18.7202 2 17.8802 2 16.2V7ZM9 14L11 16L15.5 11.5" stroke="#344054" stroke-width="2" stroke-linecap="round" stroke-linejoin="round"/>
</symbol>

<symbol id="icon-transaction" viewBox="0 0 24 24">
<path d="M14 9H11.5C10.6716 9 10 9.67157 10 10.5C10 11.3284 10.6716 12 11.5 12H12.5C13.3284 12 14 12.6716 14 13.5C14 14.3284 13.3284 15 12.5 15H10M12 8V9M12 15V16M18 12H18.01M6 12H6.01M2 8.2L2 15.8C2 16.9201 2 17.4802 2.21799 17.908C2.40973 18.2843 2.71569 18.5903 3.09202 18.782C3.51984 19 4.07989 19 5.2 19L18.8 19C19.9201 19 20.4802 19 20.908 18.782C21.2843 18.5903 21.5903 18.2843 21.782 17.908C22 17.4802 22 16.9201 22 15.8V8.2C22 7.0799 22 6.51984 21.782 6.09202C21.5903 5.7157 21.2843 5.40974 20.908 5.21799C20.4802 5 19.9201 5 18.8 5L5.2 5C4.0799 5 3.51984 5 3.09202 5.21799C2.7157 5.40973 2.40973 5.71569 2.21799 6.09202C2 6.51984 2 7.07989 2 8.2ZM18.5 12C18.5 12.2761 18.2761 12.5 18 12.5C17.7239 12.5 17.5 12.2761 17.5 12C17.5 11.7239 17.7239 11.5 18 11.5C18.2761 11.5 18.5 11.7239 18.5 12ZM6.5 12C6.5 12.2761 6.27614 12.5 6 12.5C5.72386 12.5 5.5 12.2761 5.5 12C5.5 11.7239 5.72386 11.5 6 11.5C6.27614 11.5 6.5 11.7239 6.5 12Z" stroke="#344054" stroke-width="2" stroke-linecap="round" stroke-linejoin="round"/>
</symbol>

<symbol id="icon-reprint" viewBox="0 0 24 24">
<path d="M20 8.94C19.9896 8.84813 19.9695 8.75763 19.94 8.67V8.58C19.8919 8.47718 19.8278 8.38267 19.75 8.3L13.75 2.3C13.6673 2.22222 13.5728 2.15808 13.47 2.11C13.4402 2.10576 13.4099 2.10576 13.38 2.11C13.2784 2.05174 13.1662 2.01434 13.05 2H7C6.20435 2 5.44129 2.31607 4.87868 2.87868C4.31607 3.44129 4 4.20435 4 5V19C4 19.7956 4.31607 20.5587 4.87868 21.1213C5.44129 21.6839 6.20435 22 7 22H17C17.7956 22 18.5587 21.6839 19.1213 21.1213C19.6839 20.5587 20 19.7956 20 19V9C20 9 20 9 20 8.94ZM14 5.41L16.59 8H15C14.7348 8 14.4804 7.89464 14.2929 7.70711C14.1054 7.51957 14 7.26522 14 7V5.41ZM18 19C18 19.2652 17.8946 19.5196 17.7071 19.7071C17.5196 19.8946 17.2652 20 17 20H7C6.73478 20 6.48043 19.8946 6.29289 19.7071C6.10536 19.5196 6 19.2652 6 19V5C6 4.73478 6.10536 4.48043 6.29289 4.29289C6.48043 4.10536 6.73478 4 7 4H12V7C12 7.79565 12.3161 8.55871 12.8787 9.12132C13.4413 9.68393 14.2044 10 15 10H18V19ZM14 14H13V13C13 12.7348 12.8946 12.4804 12.7071 12.2929C12.5196 12.1054 12.2652 12 12 12C11.7348 12 11.4804 12.1054 11.2929 12.2929C11.1054 12.4804 11 12.7348 11 13V14H10C9.73478 14 9.48043 14.1054 9.29289 14.2929C9.10536 14.4804 9 14.7348 9 15C9 15.2652 9.10536 15.5196 9.29289 15.7071C9.48043 15.8946 9.73478 16 10 16H11V17C11 17.2652 11.1054 17.5196 11.2929 17.7071C11.4804 17.8946 11.7348 18 12 18C12.2652 18 12.5196 17.8946 12.7071 17.7071C12.8946 17.5196 13 17.2652 13 17V16H14C14.2652 16 14.5196 15.8946 14.7071 15.7071C14.8946 15.5196 15 15.2652 15 15C15 14.7348 14.8946 14.4804 14.7071 14.2929C14.5196 14.1054 14.2652 14 14 14Z" fill="#344054"/>
</symbol>

<symbol id="icon-announce" viewBox="0 0 24 24">
<path d="M14.29 10.79L11 14.09L9.71 12.79C9.5217 12.6017 9.2663 12.4959 9 12.4959C8.7337 12.4959 8.4783 12.6017 8.29 12.79C8.1017 12.9783 7.99591 13.2337 7.99591 13.5C7.99591 13.7663 8.1017 14.0217 8.29 14.21L10.29 16.21C10.383 16.3037 10.4936 16.3781 10.6154 16.4289C10.7373 16.4797 10.868 16.5058 11 16.5058C11.132 16.5058 11.2627 16.4797 11.3846 16.4289C11.5064 16.3781 11.617 16.3037 11.71 16.21L15.71 12.21C15.8983 12.0217 16.0041 11.7663 16.0041 11.5C16.0041 11.2337 15.8983 10.9783 15.71 10.79C15.5217 10.6017 15.2663 10.4959 15 10.4959C14.7337 10.4959 14.4783 10.6017 14.29 10.79ZM19 5.49999H12.72L12.4 4.49999C12.1926 3.91322 11.8077 3.4055 11.2989 3.04715C10.7901 2.68881 10.1824 2.49759 9.56 2.49999H5C4.20435 2.49999 3.44129 2.81606 2.87868 3.37867C2.31607 3.94128 2 4.70434 2 5.49999V18.5C2 19.2956 2.31607 20.0587 2.87868 20.6213C3.44129 21.1839 4.20435 21.5 5 21.5H19C19.7956 21.5 20.5587 21.1839 21.1213 20.6213C21.6839 20.0587 22 19.2956 22 18.5V8.49999C22 7.70434 21.6839 6.94128 21.1213 6.37867C20.5587 5.81606 19.7956 5.49999 19 5.49999ZM20 18.5C20 18.7652 19.8946 19.0196 19.7071 19.2071C19.5196 19.3946 19.2652 19.5 19 19.5H5C4.73478 19.5 4.48043 19.3946 4.29289 19.2071C4.10536 19.0196 4 18.7652 4 18.5V5.49999C4 5.23478 4.10536 4.98042 4.29289 4.79289C4.48043 4.60535 4.73478 4.49999 5 4.49999H9.56C9.76964 4.49945 9.97416 4.56481 10.1446 4.68683C10.3151 4.80886 10.4429 4.98137 10.51 5.17999L11.05 6.81999C11.1171 7.01861 11.2449 7.19113 11.4154 7.31315C11.5858 7.43517 11.7904 7.50053 12 7.49999H19C19.2652 7.49999 19.5196 7.60535 19.7071 7.79289C19.8946 7.98042 20 8.23478 20 8.49999V18.5Z" fill="black"/>
</symbol>

<symbol id="icon-reports" viewBox="0 0 24 24">
<path d="M14 11H8M10 15H8M16 7H8M20 6.8V17.2C20 18.8802 20 19.7202 19.673 20.362C19.3854 20.9265 18.9265 21.3854 18.362 21.673C17.7202 22 16.8802 22 15.2 22H8.8C7.11984 22 6.27976 22 5.63803 21.673C5.07354 21.3854 4.6146 20.9265 4.32698 20.362C4 19.7202 4 18.8802 4 17.2V6.8C4 5.11984 4 4.27976 4.32698 3.63803C4.6146 3.07354 5.07354 2.6146 5.63803 2.32698C6.27976 2 7.11984 2 8.8 2H15.2C16.8802 2 17.7202 2 18.362 2.32698C18.9265 2.6146 19.3854 3.07354 19.673 3.63803C20 4.27976 20 5.11984 20 6.8Z" stroke="#344054" stroke-width="2" stroke-linecap="round" stroke-linejoin="round"/>
</symbol>

<symbol id="icon-auditors-reports" viewBox="0 0 24 24">
<path d="M14 2.26953V6.40007C14 6.96012 14 7.24015 14.109 7.45406C14.2049 7.64222 14.3578 7.7952 14.546 7.89108C14.7599 8.00007 15.0399 8.00007 15.6 8.00007H19.7305M14 17H8M16 13H8M20 9.98822V17.2C20 18.8802 20 19.7202 19.673 20.362C19.3854 20.9265 18.9265 21.3854 18.362 21.673C17.7202 22 16.8802 22 15.2 22H8.8C7.11984 22 6.27976 22 5.63803 21.673C5.07354 21.3854 4.6146 20.9265 4.32698 20.362C4 19.7202 4 18.8802 4 17.2V6.8C4 5.11984 4 4.27976 4.32698 3.63803C4.6146 3.07354 5.07354 2.6146 5.63803 2.32698C6.27976 2 7.11984 2 8.8 2H12.0118C12.7455 2 13.1124 2 13.4577 2.08289C13.7638 2.15638 14.0564 2.27759 14.3249 2.44208C14.6276 2.6276 14.887 2.88703 15.4059 3.40589L18.5941 6.59411C19.113 7.11297 19.3724 7.3724 19.5579 7.67515C19.7224 7.94356 19.8436 8.2362 19.9171 8.5423C20 8.88757 20 9.25445 20 9.98822Z" stroke="#344054" stroke-width="2" stroke-linecap="round" stroke-linejoin="round"/>
</symbol>

<symbol id="icon-dots" viewBox="0 0 20 20">
<path d="M10.0003 10.8333C10.4606 10.8333 10.8337 10.4602 10.8337 10C10.8337 9.53977 10.4606 9.16668 10.0003 9.16668C9.54009 9.16668 9.16699 9.53977 9.16699 10C9.16699 10.4602 9.54009 10.8333 10.0003 10.8333Z" stroke="#98A2B3" stroke-width="1.66667" stroke-linecap="round" stroke-linejoin="round"/>
<path d="M10.0003 5.00001C10.4606 5.00001 10.8337 4.62691 10.8337 4.16668C10.8337 3.70644 10.4606 3.33334 10.0003 3.33334C9.54009 3.33334 9.16699 3.70644 9.16699 4.16668C9.16699 4.62691 9.54009 5.00001 10.0003 5.00001Z" stroke="#98A2B3" stroke-width="1.66667" stroke-linecap="round" stroke-linejoin="round"/>
<path d="M10.0003 16.6667C10.4606 16.6667 10.8337 16.2936 10.8337 15.8333C10.8337 15.3731 10.4606 15 10.0003 15C9.54009 15 9.16699 15.3731 9.16699 15.8333C9.16699 16.2936 9.54009 16.6667 10.0003 16.6667Z" stroke="#98A2B3" stroke-width="1.66667" stroke-linecap="round" stroke-linejoin="round"/>
</symbol>

<symbol id="icon-eye" viewBox="0 0 20 20">
<path d="M0.833496 10C0.833496 10 4.16683 3.33334 10.0002 3.33334C15.8335 3.33334 19.1668 10 19.1668 10C19.1668 10 15.8335 16.6667 10.0002 16.6667C4.16683 16.6667 0.833496 10 0.833496 10Z" stroke="#667085" stroke-width="1.66667" stroke-linecap="round" stroke-linejoin="round"/>
<path d="M10.0002 12.5C11.3809 12.5 12.5002 11.3807 12.5002 10C12.5002 8.61929 11.3809 7.5 10.0002 7.5C8.61945 7.5 7.50016 8.61929 7.50016 10C7.50016 11.3807 8.61945 12.5 10.0002 12.5Z" stroke="#667085" stroke-width="1.66667" stroke-linecap="round" stroke-linejoin="round"/>
</symbol>
</svg>
